{"title":"Jack of Diamonds 2001 DVDrip English Klam","uid":5790013,"size":1054948944,"categoryP":"video","categoryS":"movies","magnet":"?xt=urn:btih:b4c0711a9c90c98dd18dcf48888771d81f2e3f34&amp;dn=Jack+of+Diamonds+2001+DVDrip+English+Klam&amp;tr=udp%3A%2F%2Ftracker.openbittorrent.com%3A80&amp;tr=udp%3A%2F%2Fopen.demonii.com%3A1337&amp;tr=udp%3A%2F%2Ftracker.coppersurfer.tk%3A6969&amp;tr=udp%3A%2F%2Fexodus.desync.com%3A6969","seeders":0,"leechers":0,"uploader":"Klambake","files":-1,"time":1282813408,"description":"With: Crispin Manson, Jodie Mcmullen en Steve Sweeney\n\nTwo jewel thieves take refuge in a remote village where, unbeknownst to them, the government is about to unleash a virus that turns people into savage killers.\n\nGeneral:\n\nComplete name                    : Jack of Diamonds\\\\Jack of Diamonds.avi\nFormat                           : AVI\nFormat/Info                      : Audio Video Interleave\nFile size                        : 1 004 MiB\nDuration                         : 1h 24mn\nOverall bit rate                 : 1 667 Kbps\n\nVideo:\n\nFormat                           : MPEG-4 Visual\nFormat profile                   : Simple@L3\nFormat settings, BVOP            : No\nFormat settings, QPel            : No\nFormat settings, GMC             : No warppoints\nFormat settings, Matrix          : Default (H.263)\nCodec ID                         : XVID\nCodec ID/Hint                    : XviD\nDuration                         : 1h 24mn\nBit rate                         : 1 208 Kbps\nWidth                            : 720 pixels\nHeight                           : 400 pixels\nDisplay aspect ratio             : 16:9\nFrame rate                       : 25.000 fps\nColor space                      : YUV\nChroma subsampling               : 4:2:0\nBit depth                        : 8 bits\nScan type                        : Progressive\nBits/(Pixel*Frame)               : 0.168\nStream size                      : 728 MiB (72%)\nWriting library                  : XviD 1.1.2 (UTC 2006-11-01)\n\nAudio:\n\nFormat                           : AC-3\nFormat/Info                      : Audio Coding 3\nMode extension                   : CM (complete main)\nCodec ID                         : 2000\nDuration                         : 1h 24mn\nBit rate mode                    : Constant\nBit rate                         : 448 Kbps\nChannel(s)                       : 2 channels\nChannel positions                : Front: L R\nSampling rate                    : 48.0 KHz\nStream size                      : 270 MiB (27%)\nAlignment                        : Aligned on interleaves\nInterleave, duration             : 32 ms (0.80 video frame)\nInterleave, preload duration     : 128 ms","torrent":{"xt":"urn:btih:b4c0711a9c90c98dd18dcf48888771d81f2e3f34","amp;dn":"Jack+of+Diamonds+2001+DVDrip+English+Klam","amp;tr":["udp%3A%2F%2Ftracker.openbittorrent.com%3A80","udp%3A%2F%2Fopen.demonii.com%3A1337","udp%3A%2F%2Ftracker.coppersurfer.tk%3A6969","udp%3A%2F%2Fexodus.desync.com%3A6969"],"infoHash":"b4c0711a9c90c98dd18dcf48888771d81f2e3f34","infoHashBuffer":{"type":"Buffer","data":[180,192,113,26,156,144,201,141,209,141,207,72,136,135,113,216,31,46,63,52]},"announce":[],"urlList":[]}}